<svg width="84" height="29" viewBox="0 0 84 29" fill="none" xmlns="http://www.w3.org/2000/svg">
<g clip-path="url(#clip0_135_5926)">
<path d="M9.64857 6.74456C9.64857 8.53612 9.64857 10.3329 9.65901 12.1245C9.65901 13.6705 9.15758 15.1748 7.7212 15.9687C6.04455 16.888 3.66277 16.653 1.79286 16.4597C1.71973 16.4597 1.65705 16.4441 1.58915 16.4388C1.65183 15.1487 1.62571 13.8429 1.56303 12.558C1.48469 10.8134 2.53978 8.7346 4.41491 8.4421C6.44674 8.12348 8.21741 7.90411 9.17848 6.78112C9.20982 6.74978 9.24116 6.71322 9.26727 6.67666C9.4083 6.4834 9.55977 6.30058 9.71124 6.11255C9.66424 6.31625 9.64857 6.53041 9.64857 6.73933V6.74456Z" fill="#240552"/>
<path d="M3.50046 28.1429C4.90028 28.2317 6.31055 28.2108 7.71037 28.237C9.34524 28.2631 11.0219 28.4668 12.5993 28.1795C14.8662 27.7669 17.4151 26.2887 18.256 24.1002C19.0343 22.0736 18.6687 19.6552 17.3263 17.9525C17.2323 17.8376 17.133 17.7226 17.0234 17.6077C15.6653 16.1243 13.5604 15.3461 11.5547 15.6125C9.06318 15.9415 6.86943 17.9002 6.22176 20.329C5.81957 21.8438 6.16952 23.4525 5.93448 24.9934C5.74122 26.2678 4.64957 27.5736 3.49524 28.1429H3.50046Z" fill="#240552"/>
<path d="M17.5052 0.961914C17.3799 1.34321 17.5313 1.75584 17.6933 2.12147C19.7721 6.75446 25.34 9.88838 25.1468 15.4563C25.058 17.9739 23.8044 20.9303 21.6995 22.4241C21.548 22.5338 21.407 22.6278 21.2294 22.68C20.8272 21.9279 20.7854 20.831 20.4459 20.0057C20.0176 18.9663 19.4535 17.9478 18.6648 17.1434C17.9074 16.3756 16.962 15.9316 16.2046 15.1795C14.6168 13.5916 13.6139 11.4188 13.4833 9.1728C13.2953 5.9762 14.8936 2.80048 17.5104 0.97236L17.5052 0.961914Z" fill="#240552"/>
<path d="M3.04726 12.1399C3.04726 12.1399 2.97413 10.7453 4.40529 10.8132C4.40529 10.8132 4.92762 12.3384 3.04726 12.1399Z" fill="#E9E9E9" stroke="#240552" stroke-width="0.21962" stroke-miterlimit="10"/>
<path d="M2.57202 23.9648C3.88168 23.9648 4.94336 22.9032 4.94336 21.5935C4.94336 20.2839 3.88168 19.2222 2.57202 19.2222C1.26237 19.2222 0.200684 20.2839 0.200684 21.5935C0.200684 22.9032 1.26237 23.9648 2.57202 23.9648Z" fill="#240552"/>
<path d="M30.7506 24.0011L35.2948 11.8572H37.7288L42.273 24.0011H39.8964L38.7839 21.0553H34.2553L33.1428 24.0011H30.7401H30.7506ZM35.0179 19.0861H38.0474L36.517 14.4479L35.0179 19.0861Z" fill="#240552"/>
<path d="M43.4898 24.0012V15.7746H45.6418V17.702C45.8403 16.9968 46.1536 16.4693 46.582 16.1193C47.005 15.7694 47.4699 15.5918 47.9765 15.5918C48.4832 15.5918 48.9376 15.691 49.3294 15.8947L48.9585 17.8221C48.6294 17.6706 48.2168 17.5975 47.7102 17.5975C46.3312 17.5975 45.647 18.7623 45.647 21.0866V24.0012H43.495H43.4898Z" fill="#240552"/>
<path d="M50.3797 21.6563C50.1603 21.1183 50.0506 20.528 50.0506 19.896C50.0506 19.264 50.1603 18.6738 50.3797 18.1254C50.599 17.5769 50.8915 17.1225 51.2624 16.7517C51.6332 16.386 52.0668 16.0988 52.5577 15.8951C53.0539 15.6913 53.571 15.5869 54.1143 15.5869C54.6575 15.5869 55.1902 15.7018 55.6603 15.9264C56.1304 16.151 56.4751 16.4696 56.6997 16.8718V11.283H58.8517V23.9963H56.6997V22.8785C56.4751 23.2807 56.1304 23.5993 55.6551 23.8239C55.185 24.0537 54.6679 24.1634 54.1143 24.1634C53.5606 24.1634 53.0539 24.0589 52.563 23.8552C52.072 23.6515 51.6385 23.3695 51.2676 23.0038C50.8968 22.6382 50.599 22.189 50.3797 21.6458V21.6563ZM52.307 19.8647C52.307 20.528 52.516 21.066 52.9286 21.4839C53.3464 21.9017 53.8583 22.1107 54.4694 22.1107C55.0805 22.1107 55.5924 21.9017 56.0259 21.4891C56.4595 21.0765 56.6684 20.5333 56.6684 19.8699C56.6684 19.2066 56.449 18.6686 56.0103 18.2664C55.5715 17.8642 55.0597 17.6657 54.4694 17.6657C53.8792 17.6657 53.3412 17.8694 52.9286 18.2768C52.516 18.6842 52.307 19.217 52.307 19.8751V19.8647Z" fill="#240552"/>
<path d="M60.9196 12.5783C60.9196 12.2179 61.0554 11.9097 61.3322 11.659C61.609 11.4083 61.9329 11.283 62.3089 11.283C62.685 11.283 63.0036 11.4083 63.2752 11.659C63.5468 11.9097 63.6774 12.2127 63.6774 12.5783C63.6774 12.9439 63.5416 13.2521 63.2752 13.5028C63.0088 13.7535 62.685 13.8789 62.3089 13.8789C61.9329 13.8789 61.5986 13.7535 61.327 13.5028C61.0554 13.2521 60.9196 12.9439 60.9196 12.5783ZM61.2225 24.0015V15.7749H63.3745V24.0015H61.2225Z" fill="#240552"/>
<path d="M65.7968 24.0015V13.8789H67.9487V24.0015H65.7968Z" fill="#240552"/>
<path d="M70.3714 24.0014V11.2881H72.5234V24.0014H70.3714Z" fill="#240552"/>
<path d="M74.4477 19.8748C74.4477 19.2324 74.5626 18.6422 74.7977 18.0937C75.0327 17.5505 75.3461 17.0961 75.7378 16.7357C76.1296 16.3753 76.5788 16.0932 77.0854 15.8947C77.5921 15.6963 78.1196 15.5918 78.668 15.5918C79.1225 15.5918 79.5926 15.6858 80.0783 15.8791C80.5641 16.0723 80.9454 16.3753 81.2222 16.7879V15.7694H83.3742V23.9959H81.2222V22.9304C80.9819 23.3221 80.6111 23.6251 80.1097 23.834C79.6082 24.043 79.1277 24.1474 78.6733 24.1474C77.9368 24.1474 77.2526 23.975 76.6153 23.6355C75.9781 23.296 75.4558 22.7894 75.0536 22.126C74.6514 21.4627 74.4529 20.7105 74.4529 19.8644L74.4477 19.8748ZM76.7041 19.8748C76.7041 20.5173 76.9287 21.0448 77.3831 21.4627C77.8376 21.8805 78.3651 22.0895 78.971 22.0895C79.5769 22.0895 80.1097 21.891 80.5536 21.4888C80.9976 21.0866 81.217 20.5486 81.217 19.8748C81.217 19.201 80.9924 18.663 80.5432 18.2609C80.094 17.8587 79.5664 17.6602 78.9658 17.6602C78.3651 17.6602 77.8219 17.8691 77.3727 18.2817C76.9235 18.6996 76.6989 19.2272 76.6989 19.8748H76.7041Z" fill="#240552"/>
</g>
<defs>
<clipPath id="clip0_135_5926">
<rect width="83.1744" height="27.3696" fill="white" transform="translate(0.200684 0.961914)"/>
</clipPath>
</defs>
</svg>
